<svg aria-hidden="true" style="position: absolute; width: 0; height: 0; overflow: hidden;" version="1.1" xmlns="http://www.w3.org/2000/svg" xmlns:xlink="http://www.w3.org/1999/xlink">
<defs>
<symbol id="icon-radio" viewBox="0 0 24 24">
<path d="M20.016 12v-3.984h-16.031v3.984h12v-2.016h2.016v2.016h2.016zM6.984 20.016q1.219 0 2.109-0.891t0.891-2.109-0.891-2.109-2.109-0.891-2.109 0.891-0.891 2.109 0.891 2.109 2.109 0.891zM3.234 6.141l12.656-5.156 0.656 1.688-8.25 3.328h11.719q0.844 0 1.406 0.586t0.563 1.43v12q0 0.844-0.563 1.406t-1.406 0.563h-16.031q-0.844 0-1.406-0.563t-0.563-1.406v-12q0-1.406 1.219-1.875z"></path>
</symbol>
<symbol id="icon-videocam" viewBox="0 0 24 24">
<path d="M17.016 10.5l3.984-3.984v10.969l-3.984-3.984v3.516q0 0.422-0.305 0.703t-0.727 0.281h-12q-0.422 0-0.703-0.281t-0.281-0.703v-10.031q0-0.422 0.281-0.703t0.703-0.281h12q0.422 0 0.727 0.281t0.305 0.703v3.516z"></path>
</symbol>
<symbol id="icon-remove" viewBox="0 0 24 24">
<path d="M18.984 12.984h-13.969v-1.969h13.969v1.969z"></path>
</symbol>
<symbol id="icon-arrow_left" viewBox="0 0 24 24">
<path d="M14.016 6.984v10.031l-5.016-5.016z"></path>
</symbol>
<symbol id="icon-arrow_right" viewBox="0 0 24 24">
<path d="M9.984 17.016v-10.031l5.016 5.016z"></path>
</symbol>
<symbol id="icon-notifications_none" viewBox="0 0 24 24">
<path d="M15.984 17.016v-6q0-1.922-1.078-3.211t-2.906-1.289-2.906 1.289-1.078 3.211v6h7.969zM18 15.984l2.016 2.016v0.984h-16.031v-0.984l2.016-2.016v-4.969q0-2.344 1.195-4.078t3.305-2.25v-0.703q0-0.609 0.422-1.055t1.078-0.445 1.078 0.445 0.422 1.055v0.703q2.109 0.516 3.305 2.25t1.195 4.078v4.969zM12 21.984q-0.797 0-1.406-0.586t-0.609-1.383h4.031q0 0.797-0.609 1.383t-1.406 0.586z"></path>
</symbol>
<symbol id="icon-favorite" viewBox="0 0 24 24">
<path d="M12 21.328l-1.453-1.313q-2.484-2.25-3.609-3.328t-2.508-2.672-1.898-2.883-0.516-2.648q0-2.297 1.57-3.891t3.914-1.594q2.719 0 4.5 2.109 1.781-2.109 4.5-2.109 2.344 0 3.914 1.594t1.57 3.891q0 1.828-1.219 3.797t-2.648 3.422-4.664 4.359z"></path>
</symbol>
<symbol id="icon-favorite_outline" viewBox="0 0 24 24">
<path d="M12.094 18.563q2.25-2.016 3.328-3.047t2.344-2.438 1.758-2.484 0.492-2.109q0-1.5-1.008-2.484t-2.508-0.984q-1.172 0-2.18 0.656t-1.383 1.688h-1.875q-0.375-1.031-1.383-1.688t-2.18-0.656q-1.5 0-2.508 0.984t-1.008 2.484q0 1.031 0.492 2.109t1.758 2.484 2.344 2.438 3.328 3.047l0.094 0.094zM16.5 3q2.344 0 3.914 1.594t1.57 3.891q0 1.359-0.516 2.648t-1.898 2.883-2.508 2.672-3.609 3.328l-1.453 1.313-1.453-1.266q-3.234-2.906-4.664-4.359t-2.648-3.422-1.219-3.797q0-2.297 1.57-3.891t3.914-1.594q2.719 0 4.5 2.109 1.781-2.109 4.5-2.109z"></path>
</symbol>
<symbol id="icon-emoji_objects" viewBox="0 0 24 24">
<path d="M12.516 11.391l1.828-1.781-0.703-0.75-1.641 1.641-1.641-1.641-0.703 0.75 1.828 1.781v2.625h1.031v-2.625zM14.016 17.016v-1.031h-4.031v1.031h4.031zM14.016 18.984v-0.984h-4.031v0.984h4.031zM12 3q2.906 0 4.945 2.039t2.039 4.945v0.047q0 1.313-0.68 2.836t-1.664 2.367q-0.656 0.563-0.656 1.453v2.297q0 0.797-0.586 1.406t-1.383 0.609h-0.281q-0.563 0.984-1.734 0.984t-1.734-0.984h-0.281q-0.797 0-1.383-0.609t-0.586-1.406v-2.297q0-0.891-0.656-1.453-2.953-2.625-2.25-6.563 0.375-2.063 1.898-3.609t3.586-1.922q0.703-0.141 1.406-0.141z"></path>
</symbol>
<symbol id="icon-ac_unit" viewBox="0 0 24 24">
<path d="M21.984 11.016v1.969h-4.172l3.234 3.234-1.406 1.453-4.641-4.688h-2.016v2.016l4.688 4.641-1.453 1.406-3.234-3.234v4.172h-1.969v-4.172l-3.234 3.234-1.453-1.406 4.688-4.641v-2.016h-2.016l-4.641 4.688-1.406-1.453 3.234-3.234h-4.172v-1.969h4.172l-3.234-3.234 1.406-1.453 4.641 4.688h2.016v-2.016l-4.688-4.641 1.453-1.406 3.234 3.234v-4.172h1.969v4.172l3.234-3.234 1.453 1.406-4.688 4.641v2.016h2.016l4.641-4.688 1.406 1.453-3.234 3.234h4.172z"></path>
</symbol>
<symbol id="icon-online_prediction" viewBox="0 0 24 24">
<path d="M15.516 11.484q0 0.75-0.375 1.43t-0.891 1.289-0.891 1.172-0.375 1.125h-1.969q0-0.563-0.375-1.125t-0.891-1.172-0.891-1.289-0.375-1.43q0-0.938 0.492-1.734t1.266-1.266 1.758-0.469 1.758 0.469 1.266 1.266 0.492 1.734zM12.984 17.484h-1.969v1.5h1.969v-1.5zM21.984 12q0-2.063-0.773-3.891t-2.133-3.188l-1.078 1.078q1.172 1.125 1.828 2.695t0.656 3.305-0.656 3.305-1.828 2.695l1.078 1.078q1.359-1.359 2.133-3.188t0.773-3.891zM3.516 12q0-1.734 0.656-3.305t1.828-2.695l-1.078-1.078q-1.359 1.359-2.133 3.188t-0.773 3.891 0.773 3.891 2.133 3.188l1.078-1.078q-1.172-1.125-1.828-2.695t-0.656-3.305zM17.484 12q0 1.125-0.422 2.133t-1.172 1.758l1.078 1.078q0.938-0.984 1.477-2.25t0.539-2.719-0.539-2.719-1.477-2.25l-1.078 1.078q0.75 0.75 1.172 1.758t0.422 2.133zM7.031 16.969l1.078-1.078q-0.75-0.75-1.172-1.758t-0.422-2.133 0.422-2.133 1.172-1.758l-1.078-1.078q-0.938 0.984-1.477 2.25t-0.539 2.719 0.539 2.719 1.477 2.25z"></path>
</symbol>
<symbol id="icon-plus" viewBox="0 0 24 24">
<path d="M18 10h-4v-4c0-1.104-0.896-2-2-2s-2 0.896-2 2l0.071 4h-4.071c-1.104 0-2 0.896-2 2s0.896 2 2 2l4.071-0.071-0.071 4.071c0 1.104 0.896 2 2 2s2-0.896 2-2v-4.071l4 0.071c1.104 0 2-0.896 2-2s-0.896-2-2-2z"></path>
</symbol>
<symbol id="icon-minus" viewBox="0 0 24 24">
<path d="M18 11h-12c-1.104 0-2 0.896-2 2s0.896 2 2 2h12c1.104 0 2-0.896 2-2s-0.896-2-2-2z"></path>
</symbol>
<symbol id="icon-video" viewBox="0 0 24 24">
<path d="M22.525 7.149c-0.16-0.099-0.342-0.149-0.525-0.149-0.153 0-0.306 0.035-0.447 0.105l-2.553 1.277v-0.382c0-1.654-1.346-3-3-3h-11c-1.654 0-3 1.346-3 3v8c0 1.654 1.346 3 3 3h11c1.654 0 3-1.346 3-3v-0.382l2.553 1.276c0.141 0.071 0.294 0.106 0.447 0.106 0.183 0 0.365-0.050 0.525-0.149 0.295-0.183 0.475-0.504 0.475-0.851v-8c0-0.347-0.18-0.668-0.475-0.851zM7 13.5c-0.829 0-1.5-0.671-1.5-1.5s0.671-1.5 1.5-1.5 1.5 0.671 1.5 1.5-0.671 1.5-1.5 1.5z"></path>
</symbol>
<symbol id="icon-camera" viewBox="0 0 24 24">
<path d="M19 6h-1.586l-1-1c-0.579-0.579-1.595-1-2.414-1h-4c-0.819 0-1.835 0.421-2.414 1l-1 1h-1.586c-1.654 0-3 1.346-3 3v8c0 1.654 1.346 3 3 3h14c1.654 0 3-1.346 3-3v-8c0-1.654-1.346-3-3-3zM12 16c-1.933 0-3.5-1.568-3.5-3.5 0-1.934 1.567-3.5 3.5-3.5s3.5 1.566 3.5 3.5c0 1.932-1.567 3.5-3.5 3.5zM18 11.299c-0.719 0-1.3-0.58-1.3-1.299s0.581-1.301 1.3-1.301 1.3 0.582 1.3 1.301-0.581 1.299-1.3 1.299z"></path>
</symbol>
<symbol id="icon-microphone" viewBox="0 0 24 24">
<path d="M12 16c2.206 0 4-1.795 4-4v-6c0-2.206-1.794-4-4-4s-4 1.794-4 4v6c0 2.205 1.794 4 4 4z"></path>
<path d="M19 12v-2c0-0.552-0.447-1-1-1s-1 0.448-1 1v2c0 2.757-2.243 5-5 5s-5-2.243-5-5v-2c0-0.552-0.447-1-1-1s-1 0.448-1 1v2c0 3.52 2.613 6.432 6 6.92v1.080h-3c-0.553 0-1 0.447-1 1s0.447 1 1 1h8c0.553 0 1-0.447 1-1s-0.447-1-1-1h-3v-1.080c3.387-0.488 6-3.4 6-6.92z"></path>
</symbol>
<symbol id="icon-adjust-brightness" viewBox="0 0 24 24">
<path d="M12 6.934l1-2.934c0.072-0.213 0.078-0.452 0-0.682-0.188-0.553-0.789-0.848-1.341-0.659-0.553 0.189-0.847 0.788-0.659 1.341l1 2.934z"></path>
<path d="M4 11c-0.213-0.072-0.452-0.078-0.682 0-0.553 0.188-0.848 0.789-0.659 1.341 0.189 0.553 0.788 0.847 1.341 0.659l2.934-1-2.934-1z"></path>
<path d="M12 17.066l-1 2.934c-0.072 0.213-0.078 0.452 0 0.682 0.188 0.553 0.789 0.848 1.341 0.659 0.553-0.189 0.847-0.788 0.659-1.341l-1-2.934z"></path>
<path d="M21.341 11.657c-0.188-0.553-0.788-0.848-1.341-0.659l-2.934 1 2.934 1c0.213 0.072 0.452 0.078 0.682 0 0.552-0.188 0.847-0.789 0.659-1.341z"></path>
<path d="M5.636 7.050l2.781 1.367-1.367-2.781c-0.1-0.202-0.265-0.375-0.482-0.482-0.524-0.258-1.157-0.042-1.415 0.482-0.257 0.523-0.041 1.157 0.483 1.414z"></path>
<path d="M5.153 17.432c-0.257 0.523-0.041 1.156 0.482 1.414 0.523 0.257 1.157 0.041 1.414-0.482l1.367-2.781-2.781 1.367c-0.201 0.099-0.374 0.263-0.482 0.482z"></path>
<path d="M18.363 16.949l-2.781-1.367 1.367 2.781c0.1 0.202 0.264 0.375 0.482 0.482 0.523 0.257 1.156 0.041 1.414-0.482s0.042-1.157-0.482-1.414z"></path>
<path d="M18.844 6.566c0.258-0.524 0.042-1.157-0.481-1.415-0.523-0.257-1.157-0.041-1.414 0.482l-1.369 2.783 2.782-1.368c0.202-0.1 0.375-0.264 0.482-0.482z"></path>
<path d="M12 7.5c-2.481 0-4.5 2.019-4.5 4.5s2.019 4.5 4.5 4.5 4.5-2.019 4.5-4.5-2.019-4.5-4.5-4.5z"></path>
</symbol>
<symbol id="icon-plus-outline" viewBox="0 0 24 24">
<path d="M12 21c-1.654 0-3-1.346-3-3l0.053-3.053-3.035 0.053c-1.672 0-3.018-1.346-3.018-3s1.346-3 3-3l3.053-0.054-0.053-2.928c0-1.672 1.346-3.018 3-3.018s3 1.346 3 3l0.055 2.946 2.963 0.054c1.636 0 2.982 1.346 2.982 3s-1.346 3-3 3l-2.945-0.053-0.055 3.071c0 1.636-1.346 2.982-3 2.982zM11 13v5.018c0 0.533 0.449 0.982 1 0.982s1-0.449 1-1v-5h5.018c0.533 0 0.982-0.449 0.982-1s-0.449-1-1-1h-5v-5c0-0.569-0.449-1-1-1s-1 0.449-1 1v5h-5c-0.569 0-1 0.449-1 1s0.449 1 1 1h5z"></path>
</symbol>
<symbol id="icon-minus-outline" viewBox="0 0 24 24">
<path d="M18 16h-12c-1.654 0-3-1.346-3-3s1.346-3 3-3h12c1.654 0 3 1.346 3 3s-1.346 3-3 3zM6 12c-0.551 0-1 0.449-1 1s0.449 1 1 1h12c0.551 0 1-0.449 1-1s-0.449-1-1-1h-12z"></path>
</symbol>
<symbol id="icon-rss-outline" viewBox="0 0 24 24">
<path d="M8 4.999c-1.657 0-3.011 1.344-3.011 3 0 0.073 0.005 8.795 0.005 9 0 2.209 1.793 4 4.002 4 0.184 0 8.908 0.001 9.003 0.001 1.655 0 3-1.346 3-3.001 0.001-7.179-5.819-13-12.999-13zM9.001 18.999c-1.105 0.002-2.001-0.894-2.001-1.999-0.002-1.105 0.894-2.001 2.001-2.001 1.105-0.002 2.001 0.894 1.999 2.001 0.002 1.105-0.894 2.001-1.999 1.999zM13.5 18.999c-0.829 0-1.5-0.671-1.5-1.5 0-1.931-1.57-3.5-3.5-3.5-0.829 0-1.5-0.671-1.5-1.5s0.671-1.5 1.5-1.5c3.584 0 6.5 2.916 6.5 6.5 0 0.829-0.671 1.5-1.5 1.5zM17.5 18.999c-0.829 0-1.5-0.671-1.5-1.5 0-4.136-3.364-7.5-7.5-7.5-0.829 0-1.5-0.671-1.5-1.5s0.671-1.5 1.5-1.5c5.79 0 10.5 4.71 10.5 10.5 0 0.829-0.671 1.5-1.5 1.5z"></path>
</symbol>
<symbol id="icon-watch" viewBox="0 0 24 24">
<path d="M12 13h2c0.55 0 1-0.45 1-1s-0.45-1-1-1h-1v-1c0-0.55-0.45-1-1-1s-1 0.45-1 1v2c0 0.55 0.45 1 1 1z"></path>
<path d="M17 7.105v-2.105c0-1.654-1.346-3-3-3h-4c-1.654 0-3 1.346-3 3v2.105c-1.236 1.263-2 2.989-2 4.895s0.764 3.632 2 4.895v2.105c0 1.654 1.346 3 3 3h4c1.654 0 3-1.346 3-3v-2.105c1.236-1.262 2-2.988 2-4.895s-0.764-3.632-2-4.895zM9 5c0-0.551 0.449-1 1-1h4c0.551 0 1 0.449 1 1v1.809c-0.883-0.512-1.906-0.809-3-0.809s-2.117 0.297-3 0.809v-1.809zM15 19c0 0.551-0.449 1-1 1h-4c-0.551 0-1-0.449-1-1v-1.811c0.883 0.513 1.906 0.811 3 0.811s2.117-0.298 3-0.811v1.811zM12 17c-2.757 0-5-2.243-5-5s2.243-5 5-5 5 2.243 5 5-2.243 5-5 5z"></path>
</symbol>
<symbol id="icon-time" viewBox="0 0 24 24">
<path d="M16 13c0-0.55-0.45-1-1-1h-3c-0.55 0-1 0.45-1 1s0.45 1 1 1h3c0.55 0 1-0.45 1-1z"></path>
<path d="M12 6c3.859 0 7 3.141 7 7s-3.141 7-7 7-7-3.141-7-7 3.141-7 7-7M12 4c-4.971 0-9 4.029-9 9s4.029 9 9 9 9-4.029 9-9-4.029-9-9-9z"></path>
<path d="M13 10c0-0.55-0.45-1-1-1s-1 0.45-1 1v3c0 0.55 0.45 1 1 1s1-0.45 1-1v-3z"></path>
<path d="M12 8c2.757 0 5 2.243 5 5s-2.243 5-5 5-5-2.243-5-5 2.243-5 5-5M12 7c-3.312 0-6 2.686-6 6 0 3.312 2.688 6 6 6s6-2.688 6-6c0-3.314-2.688-6-6-6z"></path>
</symbol>
<symbol id="icon-video-outline" viewBox="0 0 24 24">
<path d="M8 11c0 0.552-0.448 1-1 1s-1-0.448-1-1c0-0.552 0.448-1 1-1s1 0.448 1 1z"></path>
<path d="M21.585 7.188c-0.262-0.188-0.599-0.241-0.901-0.137l-1.707 0.568c-0.188-1.477-1.451-2.62-2.977-2.62h-11c-1.654 0-3 1.347-3 3v6c0 1.653 1.346 3 3 3h3v1.111l0.008 0.090c0.066 0.738 0.381 1.423 0.887 1.928 0.562 0.562 1.311 0.872 2.104 0.872s1.542-0.31 2.104-0.87c0.574-0.577 0.898-1.346 0.896-2.113v-1.017h2c1.524 0 2.789-1.145 2.978-2.62l1.707 0.568c0.303 0.104 0.64 0.051 0.9-0.138 0.262-0.188 0.415-0.49 0.415-0.812v-6c0.001-0.318-0.153-0.621-0.414-0.81zM12 18.023c0.001 0.248-0.119 0.5-0.309 0.689s-0.441 0.286-0.692 0.286c-0.25 0-0.501-0.097-0.69-0.286-0.19-0.189-0.285-0.441-0.309-0.691v-2.021h2v2.023zM17 14c0 0.552-0.448 1-1 1h-11c-0.552 0-1-0.448-1-1v-6c0-0.552 0.448-1 1-1h11c0.552 0 1 0.448 1 1v6zM20 12.611c0 0-1.895-0.605-2-0.605v-2.012c0.105 0 2-0.605 2-0.605v3.222z"></path>
</symbol>
<symbol id="icon-bell" viewBox="0 0 24 24">
<path d="M19.715 17.301c-0.017-0.018-1.717-1.854-1.73-6.32-0.009-2.607-1.69-4.824-4.019-5.641 0.018-0.111 0.034-0.223 0.034-0.34 0-1.103-0.896-2-2-2s-2 0.897-2 2c0 0.116 0.016 0.228 0.034 0.338-2.336 0.816-4.019 3.036-4.019 5.646 0 4.462-1.711 6.296-1.721 6.306-0.287 0.286-0.374 0.716-0.22 1.091s0.521 0.619 0.926 0.619h3.143c0.447 1.72 1.999 3 3.857 3s3.41-1.28 3.857-3h3.143c0.4 0 0.758-0.243 0.915-0.61s0.076-0.799-0.2-1.089zM12 7c2.189 0 3.978 1.789 3.984 3.987 0.002 0.728 0.046 1.396 0.118 2.013h-8.2c0.071-0.617 0.113-1.286 0.113-2.016 0.001-2.196 1.788-3.984 3.985-3.984zM12 20c-0.737 0-1.375-0.405-1.722-1h3.443c-0.346 0.595-0.984 1-1.721 1zM6.814 17c0.352-0.736 0.705-1.731 0.938-3h8.502c0.234 1.269 0.588 2.264 0.938 3h-10.378z"></path>
</symbol>
<symbol id="icon-device-laptop" viewBox="0 0 24 24">
<path d="M21.989 16.049c0.009-0.315 0.011-0.657 0.011-1.049v-9c0-1.654-1.346-3-3-3h-14c-1.654 0-3 1.346-3 3v9c0 0.385 0.002 0.73 0.012 1.049-1.145 0.228-2.012 1.24-2.012 2.451 0 1.378 1.122 2.5 2.5 2.5h19c1.378 0 2.5-1.122 2.5-2.5 0-1.211-0.866-2.222-2.011-2.451zM4 6c0-0.551 0.449-1 1-1h14c0.551 0 1 0.449 1 1v9c0 0.388-0.005 0.726-0.014 1h-0.986v-9c0-0.55-0.45-1-1-1h-12c-0.55 0-1 0.45-1 1v9h-0.98c-0.012-0.264-0.020-0.599-0.020-1v-9zM18 16h-12v-9h12v9zM21.5 19h-19c-0.271 0-0.5-0.229-0.5-0.5s0.229-0.5 0.5-0.5h19c0.271 0 0.5 0.229 0.5 0.5s-0.229 0.5-0.5 0.5z"></path>
</symbol>
<symbol id="icon-device-desktop" viewBox="0 0 24 24">
<path d="M21 1h-18c-1.654 0-3 1.346-3 3v11c0 1.654 1.346 3 3 3h6v2h-3c-0.552 0-1 0.448-1 1s0.448 1 1 1h12c0.552 0 1-0.448 1-1s-0.448-1-1-1h-3v-2h6c1.654 0 3-1.346 3-3v-11c0-1.654-1.346-3-3-3zM14 20h-4v-2h4v2zM22 15c0 0.551-0.449 1-1 1h-18c-0.551 0-1-0.449-1-1v-11c0-0.551 0.449-1 1-1h18c0.551 0 1 0.449 1 1v11z"></path>
<path d="M20 4h-16c-0.55 0-1 0.45-1 1v8c0 0.55 0.45 1 1 1h16c0.55 0 1-0.45 1-1v-8c0-0.55-0.45-1-1-1zM20 13h-16v-8h16v8z"></path>
</symbol>
<symbol id="icon-lightbulb" viewBox="0 0 24 24">
<path d="M12.5 5.5c-0.276 0-0.5 0.224-0.5 0.5s0.224 0.5 0.5 0.5c1.083 0 1.964 0.881 1.964 1.964 0 0.276 0.224 0.5 0.5 0.5s0.5-0.224 0.5-0.5c0-1.634-1.33-2.964-2.964-2.964z"></path>
<path d="M12.5 1c-4.136 0-7.5 3.364-7.5 7.5 0 1.486 0.44 2.922 1.274 4.165 0.023 0.047 0.049 0.092 0.080 0.135 1.825 2.606 2.146 3.43 2.146 4.2v3c0 0.552 0.448 1 1 1h2c0 0.26 0.11 0.52 0.29 0.71 0.19 0.18 0.45 0.29 0.71 0.29s0.52-0.11 0.71-0.29c0.18-0.19 0.29-0.45 0.29-0.71h2c0.552 0 1-0.448 1-1v-3c0-0.782 0.319-1.61 2.132-4.199 0.895-1.275 1.368-2.762 1.368-4.301 0-4.136-3.364-7.5-7.5-7.5zM14.5 19h-4v-1h4v1zM16.995 11.653c-1.466 2.093-2.143 3.289-2.385 4.347h-1.11v-2c0-0.552-0.448-1-1-1s-1 0.448-1 1v2h-1.113c-0.24-1.030-0.898-2.2-2.306-4.22-0.022-0.044-0.048-0.087-0.077-0.129-0.657-0.934-1.004-2.024-1.004-3.151 0-3.033 2.467-5.5 5.5-5.5s5.5 2.467 5.5 5.5c0 1.126-0.347 2.216-1.005 3.153z"></path>
</symbol>
<symbol id="icon-weather-stormy" viewBox="0 0 24 24">
<path d="M17 18c-0.553 0-1-0.447-1-1s0.447-1 1-1c1.654 0 3-1.346 3-3s-1.346-3-3-3c-0.238 0-0.496 0.042-0.813 0.131l-1.071 0.301-0.186-1.098c-0.326-1.932-1.979-3.334-3.93-3.334-2.205 0-4 1.794-4 4 0 0.274 0.027 0.545 0.082 0.806l0.26 1.24-1.436-0.052c-1.010 0.006-1.906 0.903-1.906 2.006s0.896 2 2 2c0.553 0 1 0.447 1 1s-0.447 1-1 1c-2.205 0-4-1.794-4-4 0-1.861 1.277-3.429 3.002-3.874-0.002-0.042-0.002-0.084-0.002-0.126 0-3.309 2.691-6 6-6 2.587 0 4.824 1.638 5.649 4.015 2.925-0.241 5.351 2.112 5.351 4.985 0 2.757-2.243 5-5 5z"></path>
<path d="M12.639 14l-4.5 4.051 3 1.449-1.5 3.5 4.5-4.050-3-1.45z"></path>
</symbol>
<symbol id="icon-weather-shower" viewBox="0 0 24 24">
<path d="M17 18c-0.552 0-1-0.447-1-1s0.448-1 1-1c1.654 0 3-1.346 3-3s-1.346-3-3-3c-0.243 0-0.5 0.041-0.81 0.13l-1.075 0.307-0.185-1.103c-0.326-1.932-1.978-3.334-3.93-3.334-2.206 0-4 1.794-4 4 0 0.272 0.027 0.545 0.082 0.811l0.244 1.199-1.42-0.016c-1.009 0.006-1.906 0.903-1.906 2.006s0.897 2 2 2c0.552 0 1 0.447 1 1s-0.448 1-1 1c-2.206 0-4-1.794-4-4 0-1.861 1.277-3.429 3.001-3.874-0.001-0.042-0.001-0.084-0.001-0.126 0-3.309 2.691-6 6-6 2.587 0 4.824 1.638 5.65 4.015 2.939-0.244 5.35 2.113 5.35 4.985 0 2.757-2.243 5-5 5z"></path>
<path d="M10.5 18l1-3 1 3c0.184 0.553-0.114 1.149-0.667 1.333-0.552 0.185-1.149-0.114-1.333-0.666-0.075-0.226-0.070-0.458 0-0.667z"></path>
<path d="M13.5 20l1-3 1 3c0.184 0.553-0.114 1.149-0.667 1.333-0.552 0.185-1.149-0.114-1.333-0.666-0.075-0.226-0.070-0.458 0-0.667z"></path>
<path d="M7.5 20l1-3 1 3c0.184 0.553-0.114 1.149-0.667 1.333-0.552 0.185-1.149-0.114-1.333-0.666-0.075-0.226-0.070-0.458 0-0.667z"></path>
</symbol>
<symbol id="icon-weather-partly-sunny" viewBox="0 0 24 24">
<path d="M14.5 3l-1 3-1-3c-0.184-0.553 0.114-1.149 0.666-1.333 0.553-0.185 1.15 0.114 1.334 0.666 0.075 0.226 0.070 0.458 0 0.667z"></path>
<path d="M19.864 6.050l-2.829 1.415 1.415-2.829c0.261-0.521 0.894-0.731 1.414-0.472 0.521 0.261 0.731 0.894 0.472 1.415-0.107 0.212-0.274 0.372-0.472 0.471z"></path>
<path d="M21.5 12l-3-1 3-1c0.553-0.185 1.149 0.114 1.334 0.667 0.184 0.552-0.115 1.148-0.668 1.333-0.225 0.075-0.457 0.069-0.666 0z"></path>
<path d="M8.55 4.636l1.415 2.829-2.829-1.415c-0.521-0.261-0.732-0.894-0.472-1.414 0.261-0.521 0.895-0.731 1.414-0.472 0.213 0.107 0.373 0.274 0.472 0.472z"></path>
<path d="M17.776 12.342c0.139-0.424 0.224-0.871 0.224-1.342 0-2.481-2.019-4.5-4.5-4.5-1.34 0-2.537 0.594-3.357 1.528-0.049-0.007-0.092-0.028-0.143-0.028-1.776 0-3.369 0.78-4.469 2.011-0.24-0.080-0.472-0.086-0.697-0.011-0.553 0.185-0.852 0.781-0.668 1.333 0.057 0.167 0.158 0.299 0.277 0.411-0.283 0.697-0.443 1.458-0.443 2.256 0 0.042 0 0.084 0.002 0.126-1.725 0.445-3.002 2.013-3.002 3.874 0 2.206 1.795 4 4 4h11c2.757 0 5-2.243 5-5 0-2.129-1.344-3.939-3.224-4.658zM13.5 8.5c1.379 0 2.5 1.121 2.5 2.5 0 0.366-0.096 0.706-0.238 1.019-0.354 0.021-0.72 0.074-1.118 0.188-0.521-1.353-1.604-2.415-2.967-2.905 0.456-0.49 1.102-0.802 1.823-0.802zM16 20h-11c-1.104 0-2-0.897-2-2s0.896-2 1.908-2.006l1.422 0.016-0.248-1.202c-0.055-0.263-0.082-0.536-0.082-0.808 0-2.206 1.795-4 4-4 0.024 0 0.045-0.013 0.069-0.014 1.904 0.055 3.495 1.406 3.847 3.27 0.031 0.078 0.022 0.131 0.038 0.186 0.123 0.436 0.517 0.706 0.946 0.712 0.106-0.001 0.197 0.003 0.289-0.023 0.312-0.090 0.569-0.131 0.811-0.131 1.654 0 3 1.346 3 3s-1.346 3-3 3z"></path>
</symbol>
<symbol id="icon-weather-windy-cloudy" viewBox="0 0 24 24">
<path d="M4.798 15.75c-0.134 0-0.27-0.026-0.4-0.084-1.457-0.639-2.398-2.077-2.398-3.666 0-1.861 1.277-3.429 3.001-3.874-0.001-0.042-0.001-0.084-0.001-0.126 0-3.309 2.691-6 6-6 2.932 0 5.413 2.104 5.902 5.001 0.092 0.544-0.275 1.061-0.82 1.152-0.544 0.083-1.060-0.276-1.152-0.82-0.326-1.931-1.979-3.333-3.93-3.333-2.206 0-4 1.794-4 4 0 0.272 0.027 0.546 0.081 0.812l0.259 1.27-1.431-0.088c-1.012 0.006-1.909 0.903-1.909 2.006 0 0.795 0.471 1.515 1.2 1.834 0.506 0.222 0.736 0.812 0.515 1.317-0.164 0.375-0.531 0.599-0.917 0.599z"></path>
<path d="M19 7c-0.553 0-1 0.447-1 1s0.447 1 1 1c0.552 0 1 0.448 1 1s-0.448 1-1 1h-9.6c-0.553 0-1 0.447-1 1s0.447 1 1 1h4.6c0.552 0 1 0.448 1 1s-0.448 1-1 1h-5c-1.654 0-3 1.346-3 3s1.346 3 3 3c0.553 0 1-0.447 1-1s-0.447-1-1-1c-0.552 0-1-0.448-1-1s0.448-1 1-1h5c1.654 0 3-1.346 3-3 0-0.353-0.072-0.686-0.185-1h2.185c1.654 0 3-1.346 3-3s-1.346-3-3-3z"></path>
</symbol>
<symbol id="icon-weather-sunny" viewBox="0 0 24 24">
<path d="M13 4l-1 2.934-1-2.934c-0.188-0.553 0.106-1.152 0.659-1.341 0.552-0.188 1.153 0.107 1.341 0.659 0.078 0.23 0.072 0.469 0 0.682z"></path>
<path d="M4 11l2.934 1-2.934 1c-0.553 0.188-1.152-0.106-1.341-0.659-0.188-0.552 0.107-1.153 0.659-1.341 0.23-0.078 0.469-0.072 0.682 0z"></path>
<path d="M11 20l1-2.934 1 2.934c0.188 0.553-0.106 1.152-0.659 1.341-0.552 0.188-1.152-0.106-1.341-0.659-0.078-0.23-0.072-0.469 0-0.682z"></path>
<path d="M20 12.998l-2.934-1 2.934-1c0.553-0.188 1.152 0.106 1.341 0.659 0.188 0.552-0.106 1.152-0.659 1.341-0.23 0.078-0.469 0.072-0.682 0z"></path>
<path d="M7.050 5.636l1.367 2.781-2.781-1.367c-0.524-0.257-0.74-0.891-0.483-1.414 0.258-0.523 0.891-0.739 1.414-0.482 0.218 0.107 0.383 0.28 0.483 0.482z"></path>
<path d="M5.636 16.949l2.781-1.367-1.367 2.781c-0.257 0.523-0.891 0.739-1.414 0.482s-0.739-0.891-0.482-1.414c0.107-0.218 0.28-0.382 0.482-0.482z"></path>
<path d="M16.949 18.363l-1.367-2.781 2.781 1.367c0.523 0.257 0.739 0.891 0.482 1.414s-0.891 0.739-1.414 0.482c-0.218-0.107-0.382-0.28-0.482-0.482z"></path>
<path d="M18.362 7.048l-2.782 1.368 1.368-2.782c0.257-0.523 0.891-0.739 1.414-0.482s0.739 0.891 0.481 1.415c-0.106 0.217-0.279 0.381-0.481 0.481z"></path>
<path d="M12 16.5c-2.481 0-4.5-2.019-4.5-4.5s2.019-4.5 4.5-4.5 4.5 2.019 4.5 4.5-2.019 4.5-4.5 4.5zM12 9.5c-1.379 0-2.5 1.121-2.5 2.5s1.121 2.5 2.5 2.5 2.5-1.121 2.5-2.5-1.121-2.5-2.5-2.5z"></path>
</symbol>
<symbol id="icon-weather-snow" viewBox="0 0 24 24">
<path d="M20.5 15.134l-2.457-0.503 1.483-0.396c0.533-0.143 0.85-0.69 0.707-1.225-0.142-0.533-0.689-0.85-1.225-0.707l-1.508 0.403c0.037-0.231 0.071-0.464 0.071-0.706s-0.034-0.476-0.071-0.707l1.51 0.404c0.087 0.023 0.174 0.034 0.26 0.034 0.441 0 0.846-0.295 0.965-0.741 0.143-0.533-0.174-1.082-0.707-1.225l-1.483-0.397 2.455-0.502c0.216-0.044 0.42-0.156 0.577-0.333 0.386-0.436 0.347-1.102-0.089-1.488s-1.102-0.347-1.488 0.089l-1.663 1.874 0.398-1.479c0.144-0.533-0.173-1.082-0.706-1.226-0.531-0.142-1.082 0.173-1.226 0.706l-0.407 1.517c-0.366-0.299-0.771-0.544-1.219-0.717l1.102-1.102c0.391-0.391 0.391-1.023 0-1.414s-1.023-0.391-1.414 0l-1.086 1.086 0.793-2.379c0.069-0.209 0.075-0.441 0-0.667-0.184-0.552-0.781-0.851-1.333-0.666s-0.85 0.78-0.667 1.333l0.793 2.379-1.086-1.086c-0.391-0.391-1.023-0.391-1.414 0s-0.391 1.023 0 1.414l1.102 1.102c-0.447 0.173-0.853 0.419-1.219 0.717l-0.405-1.515c-0.143-0.534-0.697-0.852-1.224-0.708-0.534 0.143-0.851 0.69-0.708 1.224l0.396 1.485-1.662-1.877c-0.146-0.164-0.345-0.285-0.578-0.333-0.57-0.117-1.127 0.25-1.244 0.82s0.251 1.128 0.822 1.245l2.454 0.503-1.48 0.396c-0.533 0.143-0.85 0.691-0.707 1.225 0.119 0.447 0.523 0.741 0.965 0.741 0.086 0 0.173-0.011 0.26-0.034l1.508-0.404c-0.039 0.231-0.073 0.465-0.073 0.706s0.034 0.475 0.071 0.707l-1.508-0.404c-0.532-0.142-1.081 0.173-1.225 0.707-0.144 0.533 0.174 1.082 0.707 1.225l1.483 0.397-2.455 0.502c-0.216 0.044-0.42 0.156-0.577 0.334-0.387 0.436-0.347 1.102 0.089 1.487 0.436 0.387 1.103 0.347 1.488-0.089l1.665-1.878-0.398 1.484c-0.144 0.533 0.173 1.082 0.707 1.225 0.087 0.023 0.174 0.034 0.26 0.034 0.441 0 0.845-0.294 0.965-0.741l0.406-1.515c0.366 0.298 0.771 0.544 1.22 0.716l-1.104 1.102c-0.391 0.39-0.391 1.023 0 1.414s1.023 0.391 1.414 0l0.706-0.707h0.252l-0.666 1.999c-0.069 0.209-0.075 0.441 0 0.667 0.184 0.552 0.781 0.851 1.333 0.666 0.553-0.184 0.851-0.78 0.667-1.333l-0.666-1.999h0.252l0.707 0.707c0.196 0.195 0.451 0.293 0.707 0.293s0.512-0.098 0.707-0.293c0.391-0.39 0.391-1.023 0-1.414l-1.102-1.103c0.448-0.172 0.854-0.418 1.22-0.717l0.406 1.517c0.12 0.447 0.523 0.741 0.965 0.741 0.086 0 0.173-0.011 0.26-0.034 0.533-0.143 0.851-0.691 0.707-1.225l-0.397-1.48 1.662 1.874c0.146 0.165 0.345 0.285 0.577 0.333 0.57 0.117 1.128-0.251 1.244-0.821 0.117-0.57-0.251-1.127-0.821-1.244zM13.072 14.5c-1.379 0-2.5-1.121-2.5-2.5s1.121-2.5 2.5-2.5 2.5 1.121 2.5 2.5-1.121 2.5-2.5 2.5z"></path>
</symbol>
<symbol id="icon-weather-night" viewBox="0 0 24 24">
<path d="M10.5 20c-0.861 0-1.71-0.151-2.523-0.451l-1.317-0.485 0.89-1.087c1.275-1.56 1.95-3.454 1.95-5.477s-0.675-3.917-1.951-5.477l-0.89-1.087 1.317-0.485c0.814-0.3 1.663-0.451 2.524-0.451 4.136 0 7.5 3.364 7.5 7.5s-3.364 7.5-7.5 7.5zM9.991 17.976c0.169 0.016 0.339 0.024 0.509 0.024 3.032 0 5.5-2.468 5.5-5.5s-2.468-5.5-5.5-5.5c-0.17 0-0.34 0.008-0.509 0.024 0.991 1.645 1.509 3.511 1.509 5.476s-0.518 3.831-1.509 5.476z"></path>
</symbol>
<symbol id="icon-plug" viewBox="0 0 24 24">
<path d="M12 17.5c-3.859 0-7-3.141-7-7h2c0 2.757 2.243 5 5 5s5-2.243 5-5h2c0 3.859-3.141 7-7 7z"></path>
<path d="M18 12c-0.553 0-1-0.447-1-1v-3h-10v3c0 0.553-0.447 1-1 1s-1-0.447-1-1v-4c0-0.553 0.447-1 1-1h12c0.553 0 1 0.447 1 1v4c0 0.553-0.447 1-1 1z"></path>
<path d="M10 3v3h-2v-3h2M10 2h-2c-0.553 0-1 0.447-1 1v3c0 0.553 0.447 1 1 1h2c0.553 0 1-0.447 1-1v-3c0-0.553-0.447-1-1-1z"></path>
<path d="M13 17.5v2.5h-2v-2.5h2M13 15.5h-2c-1.104 0-2 0.896-2 2v2.5c0 1.104 0.896 2 2 2h2c1.104 0 2-0.896 2-2v-2.5c0-1.104-0.896-2-2-2z"></path>
<path d="M16 3v3h-2v-3h2M16 2h-2c-0.553 0-1 0.447-1 1v3c0 0.553 0.447 1 1 1h2c0.553 0 1-0.447 1-1v-3c0-0.553-0.447-1-1-1z"></path>
<path d="M18 12h-12c-0.276 0-0.5-0.224-0.5-0.5s0.224-0.5 0.5-0.5h12c0.276 0 0.5 0.224 0.5 0.5s-0.224 0.5-0.5 0.5z"></path>
<path d="M12 16.5c-0.343 0-0.677-0.035-1-0.101v1.601h2v-1.601c-0.323 0.066-0.657 0.101-1 0.101z"></path>
<path d="M9 16h1v2h-1v-2z"></path>
<path d="M14 16h1v2h-1v-2z"></path>
</symbol>
<symbol id="icon-headphones" viewBox="0 0 24 24">
<path d="M21 13c0-4.963-4.037-9-9-9s-9 4.037-9 9v2.6c0 0.040 0.019 0.074 0.023 0.113-0.013 0.243-0.023 0.5-0.023 0.787v2c0 1.93 1.57 3.5 3.5 3.5s3.5-1.57 3.5-3.5v-2c0-1.511-0.83-2.79-1.982-3.278 0.095-2.122 1.837-3.823 3.982-3.823s3.887 1.7 3.982 3.822c-1.152 0.49-1.982 1.768-1.982 3.279v2c0 1.93 1.57 3.5 3.5 3.5s3.5-1.57 3.5-3.5v-2c0-0.287-0.010-0.544-0.023-0.787 0.004-0.039 0.023-0.073 0.023-0.113v-2.6zM5 13c0-1.586 0.538-3.046 1.432-4.221l0.89 0.889c-0.742 0.928-1.218 2.075-1.302 3.332-0.020 0-0.020 1-0.020 1h-1v-1zM8 18.5c0 0.827-0.673 1.5-1.5 1.5s-1.5-0.673-1.5-1.5v-2c0-0.666 0.057-1.176 0.114-1.5h1.886c0.473 0 1 0.616 1 1.5v2zM15.77 9.162l-0.354 0.354c-0.912-0.913-2.125-1.416-3.416-1.416s-2.504 0.503-3.417 1.416l-2.122-2.121c1.479-1.48 3.447-2.295 5.539-2.295s4.060 0.815 5.539 2.295l-1.769 1.767zM19 18.5c0 0.827-0.673 1.5-1.5 1.5s-1.5-0.673-1.5-1.5v-2c0-0.884 0.527-1.5 1-1.5h1.886c0.057 0.324 0.114 0.834 0.114 1.5v2zM19 14h-1v-1c-0.104-1.257-0.58-2.404-1.322-3.332l0.891-0.889c0.893 1.175 1.431 2.634 1.431 4.221v1z"></path>
</symbol>
<symbol id="icon-thermometer" viewBox="0 0 24 24">
<path d="M13 15.071v-5.571c0-0.275-0.225-0.5-0.5-0.5s-0.5 0.225-0.5 0.5v5.571c-0.86 0.224-1.5 1-1.5 1.929 0 1.103 0.896 2 2 2s2-0.897 2-2c0-0.929-0.64-1.705-1.5-1.929z"></path>
<path d="M16 13.459v-7.959c0-1.93-1.57-3.5-3.5-3.5s-3.5 1.57-3.5 3.5v7.959c-0.922 0.902-1.5 2.151-1.5 3.541 0 2.757 2.243 5 5 5s5-2.243 5-5c0-1.39-0.578-2.639-1.5-3.541zM12.5 20c-1.654 0-3-1.346-3-3 0-1.105 0.607-2.062 1.5-2.583v-8.917c0-0.827 0.673-1.5 1.5-1.5s1.5 0.673 1.5 1.5v8.917c0.893 0.521 1.5 1.478 1.5 2.583 0 1.654-1.346 3-3 3z"></path>
</symbol>
<symbol id="icon-leaf" viewBox="0 0 24 24">
<path d="M20 11c0-4.9-3.499-9.1-8.32-9.983l-0.18-0.034-0.18 0.033c-4.821 0.884-8.32 5.084-8.32 9.984 0 4.617 3.108 8.61 7.5 9.795v1.205c0 0.553 0.448 1 1 1s1-0.447 1-1v-1.205c4.392-1.185 7.5-5.178 7.5-9.795zM12.5 18.7v-2.993l4.354-4.354c0.195-0.195 0.195-0.512 0-0.707s-0.512-0.195-0.707 0l-3.647 3.647v-3.586l2.354-2.354c0.195-0.195 0.195-0.512 0-0.707s-0.512-0.195-0.707 0l-1.647 1.647v-3.293c0-0.553-0.448-1-1-1s-1 0.447-1 1v3.293l-1.646-1.647c-0.195-0.195-0.512-0.195-0.707 0s-0.195 0.512 0 0.707l2.354 2.354v3.586l-3.646-3.646c-0.195-0.195-0.512-0.195-0.707 0s-0.195 0.512 0 0.707l4.354 4.354v2.992c-3.249-1.116-5.502-4.179-5.502-7.7 0-3.874 2.723-7.201 6.5-7.981 3.777 0.78 6.5 4.107 6.5 7.981 0 3.521-2.253 6.584-5.5 7.7z"></path>
</symbol>
<symbol id="icon-feather" viewBox="0 0 24 24">
<path d="M11.68 1.017l-0.18-0.034-0.18 0.033c-4.821 0.884-8.32 5.084-8.32 9.984 0 4.617 3.108 8.61 7.5 9.795v1.205c0 0.553 0.448 1 1 1s1-0.447 1-1v-1.205c4.392-1.185 7.5-5.178 7.5-9.795 0-4.9-3.499-9.1-8.32-9.983zM12.5 18.7v-11.7c0-0.553-0.448-1-1-1s-1 0.447-1 1v11.7c-3.18-1.093-5.4-4.054-5.49-7.483l3.137 3.137c0.097 0.097 0.225 0.146 0.353 0.146s0.256-0.049 0.354-0.146c0.195-0.195 0.195-0.512 0-0.707l-3.769-3.769c0.133-0.964 0.434-1.877 0.877-2.709l2.184 2.185c0.098 0.097 0.226 0.146 0.354 0.146s0.256-0.049 0.354-0.146c0.195-0.195 0.195-0.512 0-0.707l-2.353-2.353c1.162-1.641 2.919-2.846 4.999-3.275 2.080 0.43 3.837 1.635 4.999 3.275l-2.353 2.353c-0.195 0.195-0.195 0.512 0 0.707 0.098 0.097 0.226 0.146 0.354 0.146s0.256-0.049 0.354-0.146l2.184-2.185c0.444 0.832 0.744 1.745 0.877 2.709l-3.769 3.769c-0.195 0.195-0.195 0.512 0 0.707 0.098 0.098 0.226 0.146 0.354 0.146s0.256-0.049 0.354-0.146l3.137-3.137c-0.091 3.429-2.311 6.39-5.491 7.483z"></path>
</symbol>
<symbol id="icon-sunrise" viewBox="0 0 32 32">
<path d="M11.101 18c0.465-2.283 2.48-4 4.9-4s4.435 1.717 4.899 4h2c-0.49-3.383-3.38-6-6.898-6-3.517 0-6.409 2.617-6.898 6h1.999zM16.001 10c0.552 0 1-0.448 1-1v-2c0-0.552-0.448-1-1-1s-1 0.448-1 1v2c0 0.552 0.448 1 1 1zM25.192 9.807c-0.391-0.391-1.023-0.391-1.414 0l-1.414 1.414c-0.391 0.391-0.391 1.023 0 1.414s1.023 0.391 1.414 0l1.414-1.414c0.391-0.391 0.391-1.023 0-1.414zM9.636 11.221l-1.414-1.414c-0.391-0.391-1.023-0.391-1.414 0s-0.391 1.023 0 1.414l1.414 1.414c0.391 0.391 1.024 0.391 1.414 0s0.391-1.023 0-1.414zM22.001 20h-12c-0.552 0-1 0.448-1 1s0.448 1 1 1h12c0.552 0 1-0.448 1-1s-0.448-1-1-1zM20.001 24h-8c-0.552 0-1 0.448-1 1s0.448 1 1 1h8c0.552 0 1-0.448 1-1s-0.448-1-1-1z"></path>
</symbol>
<symbol id="icon-sun" viewBox="0 0 32 32">
<path d="M16 9c-3.859 0-7 3.141-7 7s3.141 7 7 7 7-3.141 7-7c0-3.859-3.141-7-7-7zM16 21c-2.762 0-5-2.238-5-5s2.238-5 5-5 5 2.238 5 5-2.238 5-5 5zM16 7c0.552 0 1-0.448 1-1v-2c0-0.552-0.448-1-1-1s-1 0.448-1 1v2c0 0.552 0.448 1 1 1zM16 25c-0.552 0-1 0.448-1 1v2c0 0.552 0.448 1 1 1s1-0.448 1-1v-2c0-0.552-0.448-1-1-1zM23.777 9.635l1.414-1.414c0.391-0.391 0.391-1.023 0-1.414s-1.023-0.391-1.414 0l-1.414 1.414c-0.391 0.391-0.391 1.023 0 1.414s1.023 0.391 1.414 0zM8.223 22.365l-1.414 1.414c-0.391 0.391-0.391 1.023 0 1.414s1.023 0.391 1.414 0l1.414-1.414c0.391-0.392 0.391-1.023 0-1.414s-1.023-0.392-1.414 0zM7 16c0-0.552-0.448-1-1-1h-2c-0.552 0-1 0.448-1 1s0.448 1 1 1h2c0.552 0 1-0.448 1-1zM28 15h-2c-0.552 0-1 0.448-1 1s0.448 1 1 1h2c0.552 0 1-0.448 1-1s-0.448-1-1-1zM8.221 9.635c0.391 0.391 1.024 0.391 1.414 0s0.391-1.023 0-1.414l-1.414-1.414c-0.391-0.391-1.023-0.391-1.414 0s-0.391 1.023 0 1.414l1.414 1.414zM23.779 22.363c-0.392-0.391-1.023-0.391-1.414 0s-0.392 1.023 0 1.414l1.414 1.414c0.391 0.391 1.023 0.391 1.414 0s0.391-1.023 0-1.414l-1.414-1.414z"></path>
</symbol>
<symbol id="icon-moon" viewBox="0 0 32 32">
<path d="M21.866 21.447c-3.117 3.12-8.193 3.12-11.313 0s-3.12-8.195 0-11.314c0.826-0.824 1.832-1.453 2.989-1.863 0.365-0.128 0.768-0.035 1.039 0.237 0.274 0.273 0.366 0.677 0.237 1.039-0.784 2.211-0.25 4.604 1.391 6.245 1.638 1.639 4.031 2.172 6.245 1.391 0.362-0.129 0.767-0.036 1.039 0.237 0.273 0.271 0.365 0.676 0.236 1.039-0.408 1.157-1.038 2.164-1.863 2.989zM11.967 11.547c-2.34 2.34-2.34 6.147 0 8.486 2.5 2.501 6.758 2.276 8.937-0.51-2.247 0.141-4.461-0.671-6.109-2.318s-2.458-3.861-2.318-6.108c-0.18 0.141-0.35 0.29-0.51 0.451z"></path>
</symbol>
<symbol id="icon-sun1" viewBox="0 0 32 32">
<path d="M16.938 7.938c0.552 0 1-0.448 1-1v-2c0-0.552-0.448-1-1-1s-1 0.448-1 1v2c0 0.552 0.448 1 1 1zM16.938 25.938c-0.552 0-1 0.448-1 1v2c0 0.552 0.448 1 1 1s1-0.448 1-1v-2c0-0.552-0.448-1-1-1zM9.16 23.302l-1.414 1.414c-0.391 0.391-0.391 1.023 0 1.414s1.023 0.391 1.414 0l1.414-1.414c0.391-0.392 0.391-1.023 0-1.414s-1.023-0.392-1.414 0zM7.938 16.938c0-0.552-0.448-1-1-1h-2c-0.552 0-1 0.448-1 1s0.448 1 1 1h2c0.552 0 1-0.448 1-1zM9.159 10.573c0.391 0.391 1.024 0.391 1.414 0s0.391-1.023 0-1.414l-1.414-1.414c-0.391-0.391-1.023-0.391-1.414 0s-0.391 1.023 0 1.414l1.414 1.414zM20.938 9.938c-0.699 0-1.363 0.135-2 0.325-0.637-0.19-1.301-0.325-2-0.325-3.859 0-7 3.141-7 7s3.141 7 7 7c0.699 0 1.363-0.135 2-0.326 0.637 0.19 1.301 0.326 2 0.326 3.859 0 7-3.141 7-7s-3.141-7-7-7zM15.952 21.839c-2.29-0.458-4.014-2.477-4.014-4.901s1.724-4.443 4.014-4.901c-1.243 1.264-2.014 2.992-2.014 4.901s0.771 3.637 2.014 4.901z"></path>
</symbol>
<symbol id="icon-windy" viewBox="0 0 32 32">
<path d="M30.938 13.938h-5.102c-0.504-4.487-4.277-8-8.898-8-3.113 0-5.859 1.591-7.477 4h-6.523c-0.552 0-1 0.448-1 1s0.448 1 1 1h5.552c-0.226 0.638-0.374 1.306-0.45 2h-3.102c-0.552 0-1 0.448-1 1s0.448 1 1 1h3.102c0.077 0.693 0.224 1.363 0.45 2h-5.37c-0.654 0-1.182 0.448-1.182 1s0.529 1 1.182 1h6.341c1.617 2.41 4.363 4 7.477 4s5.859-1.59 7.477-4h2.341c0.654 0 1.182-0.448 1.182-1s-0.529-1-1.182-1h-1.37c0.227-0.637 0.372-1.307 0.451-2h5.102c0.552 0 1-0.448 1-1s-0.448-1-1-1zM10.639 11.938h6.298c0.552 0 1-0.448 1-1s-0.448-1-1-1h-4.884c1.263-1.233 2.983-2 4.884-2 3.518 0 6.409 2.617 6.898 6h-13.797c0.102-0.707 0.302-1.378 0.6-2zM16.938 21.938c-1.901 0-3.621-0.768-4.884-2h9.767c-1.262 1.232-2.982 2-4.883 2zM23.234 17.938h-12.595c-0.298-0.622-0.499-1.293-0.6-2h13.797c-0.102 0.707-0.302 1.378-0.602 2z"></path>
</symbol>
<symbol id="icon-wind" viewBox="0 0 32 32">
<path d="M26.938 12c-1.656 0-3 1.344-3 3 0 0.353 0.073 0.685 0.184 1h-19.184c-0.552 0-1 0.448-1 1s0.448 1 1 1h22c1.656 0 3-1.344 3-3s-1.344-3-3-3zM4.938 14h12c1.656 0 3-1.344 3-3s-1.344-3-3-3-3 1.344-3 3c0 0.353 0.073 0.685 0.184 1h-9.184c-0.552 0-1 0.448-1 1s0.448 1 1 1zM20.938 20c-0.059 0-0.115 0.013-0.174 0.018-0.039-0.003-0.072-0.018-0.111-0.018h-15.428c-0.711 0-1.287 0.448-1.287 1s0.576 1 1.287 1h12.897c-0.111 0.315-0.184 0.648-0.184 1 0 1.656 1.344 3 3 3s3-1.344 3-3-1.344-3-3-3z"></path>
</symbol>
<symbol id="icon-cloudy" viewBox="0 0 32 32">
<path d="M13 4c0.552 0 1-0.448 1-1v-2c0-0.552-0.448-1-1-1s-1 0.448-1 1v2c0 0.552 0.448 1 1 1zM20.777 6.635l1.414-1.414c0.391-0.391 0.391-1.023 0-1.414s-1.023-0.391-1.414 0l-1.414 1.414c-0.391 0.391-0.391 1.023 0 1.414s1.023 0.391 1.414 0zM1 14h2c0.552 0 1-0.448 1-1s-0.448-1-1-1h-2c-0.552 0-1 0.448-1 1s0.448 1 1 1zM22 13c0 0.552 0.448 1 1 1h2c0.552 0 1-0.448 1-1s-0.448-1-1-1h-2c-0.552 0-1 0.448-1 1zM5.221 6.635c0.391 0.391 1.024 0.391 1.414 0s0.391-1.023 0-1.414l-1.414-1.414c-0.391-0.391-1.023-0.391-1.414 0s-0.391 1.023 0 1.414l1.414 1.414zM25 16c-0.332 0-0.66 0.023-0.987 0.070-1.048-1.43-2.445-2.521-4.029-3.219-0.081-3.789-3.176-6.852-6.984-6.852-3.859 0-7 3.141-7 7 0 1.090 0.271 2.109 0.719 3.027-3.727 0.152-6.719 3.211-6.719 6.973 0 3.859 3.141 7 7 7 0.856 0 1.693-0.156 2.482-0.458 1.81 1.578 4.112 2.458 6.518 2.458 2.409 0 4.708-0.88 6.518-2.458 0.789 0.302 1.626 0.458 2.482 0.458 3.859 0 7-3.141 7-7s-3.141-7-7-7zM13 8c2.488 0 4.535 1.823 4.919 4.203-0.626-0.125-1.266-0.203-1.919-0.203-2.871 0-5.531 1.238-7.398 3.328-0.371-0.698-0.602-1.482-0.602-2.328 0-2.762 2.238-5 5-5zM25 28c-1.070 0-2.057-0.344-2.871-0.917-1.467 1.768-3.652 2.917-6.129 2.917s-4.662-1.148-6.129-2.917c-0.813 0.573-1.801 0.917-2.871 0.917-2.762 0-5-2.238-5-5s2.238-5 5-5c0.484 0 0.941 0.091 1.383 0.221 0.176 0.049 0.354 0.089 0.52 0.158 0.273-0.535 0.617-1.025 0.999-1.484 1.461-1.758 3.634-2.895 6.099-2.895 0.633 0 1.24 0.091 1.828 0.232 0.66 0.156 1.284 0.393 1.865 0.706 1.456 0.773 2.651 1.971 3.404 3.441 0.587-0.242 1.229-0.379 1.904-0.379 2.762 0 5 2.238 5 5s-2.238 5-5 5z"></path>
</symbol>
<symbol id="icon-cloud" viewBox="0 0 32 32">
<path d="M27.191 16.385c0.305-0.227 0.613-0.449 0.889-0.725 0.826-0.827 1.454-1.833 1.862-2.991 0.13-0.362 0.038-0.768-0.236-1.039-0.272-0.273-0.676-0.366-1.039-0.237-2.212 0.781-4.605 0.25-6.244-1.391-1.641-1.641-2.174-4.033-1.391-6.244 0.128-0.363 0.036-0.767-0.237-1.040-0.271-0.271-0.676-0.365-1.039-0.237-1.159 0.411-2.164 1.039-2.99 1.864-2.096 2.094-2.749 5.063-2.030 7.737-2.703 0.345-5.133 1.781-6.751 3.987-0.327-0.047-0.655-0.070-0.987-0.070-3.859 0-7 3.141-7 7s3.141 7 7 7c0.856 0 1.693-0.156 2.482-0.458 1.81 1.578 4.112 2.458 6.518 2.458 2.409 0 4.708-0.88 6.518-2.458 0.789 0.302 1.626 0.458 2.482 0.458 3.859 0 7-3.141 7-7 0-3.090-2.026-5.689-4.809-6.615zM18.182 5.76c0.159-0.161 0.329-0.311 0.509-0.452-0.141 2.249 0.671 4.461 2.319 6.108 1.648 1.648 3.861 2.458 6.109 2.319-0.862 1.099-2.050 1.783-3.32 2.074-1.711-2.172-4.225-3.539-6.997-3.762-0.767-2.122-0.318-4.59 1.38-6.288zM25 28c-1.070 0-2.057-0.344-2.871-0.917-1.467 1.768-3.652 2.917-6.129 2.917s-4.662-1.148-6.129-2.917c-0.813 0.573-1.801 0.917-2.871 0.917-2.762 0-5-2.238-5-5s2.238-5 5-5c0.676 0 1.316 0.137 1.902 0.379 1.262-2.46 3.734-4.181 6.645-4.346 0.152-0.009 0.301-0.033 0.453-0.033 0.807 0 1.582 0.126 2.313 0.349 0.987 0.302 1.887 0.794 2.668 1.428 0.746 0.605 1.371 1.348 1.863 2.181 0.083 0.141 0.177 0.273 0.253 0.421 0.587-0.242 1.229-0.379 1.904-0.379 2.762 0 5 2.238 5 5s-2.238 5-5 5z"></path>
</symbol>
<symbol id="icon-weather" viewBox="0 0 32 32">
<path d="M16 5.938c0.552 0 1-0.448 1-1v-2c0-0.552-0.448-1-1-1s-1 0.448-1 1v2c0 0.552 0.448 1 1 1zM23.777 8.573l1.414-1.414c0.391-0.391 0.391-1.023 0-1.414s-1.023-0.391-1.414 0l-1.414 1.414c-0.391 0.391-0.391 1.023 0 1.414s1.023 0.391 1.414 0zM4 15.938h2c0.552 0 1-0.448 1-1s-0.448-1-1-1h-2c-0.552 0-1 0.448-1 1s0.448 1 1 1zM25 14.938c0 0.552 0.448 1 1 1h2c0.552 0 1-0.448 1-1s-0.448-1-1-1h-2c-0.552 0-1 0.448-1 1zM8.221 8.573c0.391 0.391 1.024 0.391 1.414 0s0.391-1.023 0-1.414l-1.414-1.414c-0.391-0.391-1.023-0.391-1.414 0s-0.391 1.023 0 1.414l1.414 1.414zM9.102 15.938h2c-0.066-0.323-0.102-0.658-0.102-1 0-2.762 2.238-5 5-5s5 2.238 5 5c0 0.342-0.035 0.677-0.102 1h2c0.049-0.329 0.102-0.658 0.102-1 0-3.859-3.141-7-7-7s-7 3.141-7 7c0 0.342 0.055 0.671 0.102 1zM28 17.938h-24c-0.552 0-1 0.448-1 1s0.448 1 1 1h24c0.552 0 1-0.448 1-1s-0.448-1-1-1zM28 21.938h-24c-0.552 0-1 0.448-1 1s0.448 1 1 1h24c0.552 0 1-0.448 1-1s-0.448-1-1-1zM28 25.938h-24c-0.552 0-1 0.448-1 1s0.448 1 1 1h24c0.552 0 1-0.448 1-1s-0.448-1-1-1z"></path>
</symbol>
<symbol id="icon-weather1" viewBox="0 0 32 32">
<path d="M4 19.938h24c0.552 0 1-0.448 1-1s-0.448-1-1-1h-24c-0.552 0-1 0.448-1 1s0.448 1 1 1zM28 21.938h-24c-0.552 0-1 0.448-1 1s0.448 1 1 1h24c0.552 0 1-0.448 1-1s-0.448-1-1-1zM28 25.938h-24c-0.552 0-1 0.448-1 1s0.448 1 1 1h24c0.552 0 1-0.448 1-1s-0.448-1-1-1zM12.815 15.938c-0.021-0.021-0.047-0.034-0.068-0.055-2.34-2.34-2.34-6.146 0-8.487 0.16-0.159 0.329-0.31 0.509-0.45-0.141 2.247 0.671 4.461 2.319 6.108 1.648 1.65 3.862 2.458 6.109 2.318-0.167 0.212-0.367 0.383-0.556 0.566h2.595c0.315-0.503 0.578-1.047 0.786-1.629 0.126-0.366 0.034-0.771-0.24-1.042-0.268-0.272-0.674-0.366-1.039-0.237-2.211 0.781-4.603 0.249-6.242-1.391-1.641-1.641-2.175-4.033-1.391-6.244 0.13-0.363 0.036-0.767-0.237-1.040-0.271-0.272-0.676-0.365-1.039-0.236-1.158 0.409-2.164 1.038-2.99 1.862-2.701 2.701-3.053 6.861-1.079 9.956h2.561z"></path>
</symbol>
<symbol id="icon-weather2" viewBox="0 0 32 32">
<path d="M2.1 16c-0.065-0.323-0.1-0.658-0.1-1 0-2.762 2.238-5 5-5 0.676 0 1.316 0.138 1.902 0.38 1.327-2.588 3.991-4.38 7.098-4.38s5.771 1.792 7.096 4.38c0.587-0.242 1.229-0.38 1.904-0.38 2.762 0 5 2.238 5 5 0 0.342-0.035 0.677-0.102 1h2c0.049-0.329 0.102-0.658 0.102-1 0-3.859-3.141-7-7-7-0.332 0-0.66 0.023-0.987 0.070-1.867-2.544-4.814-4.070-8.013-4.070s-6.145 1.526-8.013 4.070c-0.327-0.047-0.655-0.070-0.987-0.070-3.859 0-7 3.141-7 7 0 0.342 0.053 0.671 0.102 1h1.999zM31 18h-30c-0.552 0-1 0.448-1 1s0.448 1 1 1h30c0.552 0 1-0.448 1-1s-0.448-1-1-1zM31 22h-30c-0.552 0-1 0.448-1 1s0.448 1 1 1h30c0.552 0 1-0.448 1-1s-0.448-1-1-1zM31 26h-30c-0.552 0-1 0.448-1 1s0.448 1 1 1h30c0.552 0 1-0.448 1-1s-0.448-1-1-1z"></path>
</symbol>
<symbol id="icon-lines" viewBox="0 0 32 32">
<path d="M7 10h18c0.552 0 1-0.448 1-1s-0.448-1-1-1h-18c-0.552 0-1 0.448-1 1s0.448 1 1 1zM25 12h-18c-0.552 0-1 0.448-1 1s0.448 1 1 1h18c0.552 0 1-0.448 1-1s-0.448-1-1-1zM25 16h-18c-0.552 0-1 0.448-1 1s0.448 1 1 1h18c0.552 0 1-0.448 1-1s-0.448-1-1-1zM25 20h-18c-0.552 0-1 0.448-1 1s0.448 1 1 1h18c0.552 0 1-0.448 1-1s-0.448-1-1-1z"></path>
</symbol>
<symbol id="icon-sun2" viewBox="0 0 32 32">
<path d="M16 9c-3.859 0-7 3.141-7 7s3.141 7 7 7 7-3.141 7-7c0-3.859-3.141-7-7-7zM16 7c0.552 0 1-0.447 1-1v-2c0-0.552-0.448-1-1-1-0.553 0-1 0.448-1 1v2c0 0.553 0.447 1 1 1zM16 25c-0.553 0-1 0.448-1 1v2c0 0.553 0.447 1 1 1 0.552 0 1-0.447 1-1v-2c0-0.552-0.448-1-1-1zM23.776 9.635l1.414-1.414c0.391-0.391 0.391-1.023 0-1.414s-1.023-0.391-1.414 0l-1.414 1.414c-0.391 0.391-0.391 1.023 0 1.414s1.023 0.391 1.414 0zM8.221 22.366l-1.414 1.414c-0.391 0.391-0.391 1.023 0 1.414s1.023 0.391 1.414 0l1.414-1.414c0.391-0.393 0.391-1.023 0-1.414s-1.023-0.393-1.414 0zM7 16c0-0.552-0.448-1-1-1h-2c-0.553 0-1 0.448-1 1 0 0.553 0.447 1 1 1h2c0.552 0 1-0.447 1-1zM28 15h-2c-0.553 0-1 0.448-1 1 0 0.553 0.447 1 1 1h2c0.552 0 1-0.447 1-1 0-0.552-0.448-1-1-1zM8.22 9.635c0.391 0.391 1.023 0.391 1.414 0s0.391-1.023 0-1.414l-1.414-1.414c-0.391-0.391-1.024-0.391-1.414 0s-0.391 1.023 0 1.414l1.414 1.414zM23.779 22.363c-0.393-0.391-1.023-0.391-1.414 0s-0.393 1.023 0 1.414l1.414 1.414c0.391 0.391 1.023 0.391 1.414 0s0.391-1.023 0-1.414l-1.414-1.414z"></path>
</symbol>
<symbol id="icon-moon1" viewBox="0 0 32 32">
<path d="M15.505 16.496c-1.97-1.971-2.499-4.819-1.626-7.284-0.953 0.337-1.854 0.865-2.616 1.626-2.734 2.734-2.734 7.167 0 9.9 2.733 2.733 7.164 2.735 9.898 0 0.764-0.762 1.29-1.663 1.626-2.616-2.463 0.872-5.312 0.344-7.283-1.626z"></path>
</symbol>
<symbol id="icon-cloudy1" viewBox="0 0 32 32">
<path d="M13 4c0.552 0 1-0.448 1-1v-2c0-0.552-0.448-1-1-1s-1 0.448-1 1v2c0 0.552 0.448 1 1 1zM20.777 6.635l1.414-1.414c0.391-0.391 0.391-1.023 0-1.414s-1.023-0.391-1.414 0l-1.414 1.414c-0.391 0.391-0.391 1.023 0 1.414s1.023 0.391 1.414 0zM1 14h2c0.552 0 1-0.448 1-1s-0.448-1-1-1h-2c-0.552 0-1 0.448-1 1s0.448 1 1 1zM22 13c0 0.552 0.448 1 1 1h2c0.552 0 1-0.448 1-1s-0.448-1-1-1h-2c-0.552 0-1 0.448-1 1zM5.221 6.635c0.391 0.391 1.024 0.391 1.414 0s0.391-1.023 0-1.414l-1.414-1.414c-0.391-0.391-1.023-0.391-1.414 0s-0.391 1.023 0 1.414l1.414 1.414zM25 16c-0.332 0-0.66 0.023-0.987 0.070-1.048-1.43-2.445-2.521-4.029-3.219-0.081-3.789-3.176-6.852-6.984-6.852-3.859 0-7 3.141-7 7 0 1.090 0.271 2.109 0.719 3.027-3.727 0.152-6.719 3.211-6.719 6.973 0 3.859 3.141 7 7 7 0.856 0 1.693-0.156 2.482-0.458 1.81 1.578 4.112 2.458 6.518 2.458 2.409 0 4.708-0.88 6.518-2.458 0.789 0.302 1.626 0.458 2.482 0.458 3.859 0 7-3.141 7-7s-3.141-7-7-7zM16 12c-2.871 0-5.531 1.238-7.398 3.328-0.371-0.698-0.602-1.482-0.602-2.328 0-2.762 2.238-5 5-5 2.488 0 4.535 1.823 4.919 4.203-0.626-0.125-1.266-0.203-1.919-0.203z"></path>
</symbol>
<symbol id="icon-cloud1" viewBox="0 0 32 32">
<path d="M27.191 16.385c0.305-0.227 0.613-0.449 0.889-0.725 0.826-0.827 1.454-1.833 1.862-2.991 0.13-0.362 0.038-0.768-0.236-1.039-0.272-0.273-0.676-0.366-1.039-0.237-2.212 0.781-4.605 0.25-6.244-1.391-1.641-1.641-2.174-4.033-1.391-6.244 0.128-0.363 0.036-0.767-0.237-1.040-0.271-0.271-0.676-0.365-1.039-0.237-1.159 0.411-2.164 1.039-2.99 1.865-2.096 2.094-2.749 5.063-2.030 7.737-2.703 0.345-5.133 1.781-6.751 3.987-0.327-0.047-0.655-0.070-0.987-0.070-3.859 0-7 3.141-7 7s3.141 7 7 7c0.856 0 1.693-0.156 2.482-0.458 1.81 1.578 4.112 2.458 6.518 2.458 2.409 0 4.708-0.88 6.518-2.458 0.789 0.302 1.626 0.458 2.482 0.458 3.859 0 7-3.141 7-7 0-3.090-2.026-5.689-4.809-6.615zM18.182 5.76c0.159-0.161 0.329-0.311 0.509-0.452-0.141 2.249 0.671 4.461 2.319 6.108 1.648 1.648 3.861 2.458 6.109 2.319-0.862 1.099-2.050 1.783-3.32 2.074-1.711-2.172-4.225-3.539-6.997-3.762-0.767-2.122-0.318-4.59 1.38-6.288z"></path>
</symbol>
<symbol id="icon-thermometer1" viewBox="0 0 32 32">
<path d="M18 22.555v-18.372c0-1.206-0.896-2.182-2-2.182s-2 0.977-2 2.182v18.372c-1.19 0.693-2 1.969-2 3.445 0 2.208 1.792 4 4 4s4-1.792 4-4c0-1.477-0.809-2.753-2-3.445z"></path>
</symbol>
<symbol id="icon-compass" viewBox="0 0 32 32">
<path d="M16 0c-8.837 0-16 7.163-16 16 0 8.836 7.163 16 16 16 8.836 0 16-7.164 16-16 0-8.837-7.164-16-16-16zM16 28c-6.617 0-12-5.383-12-12s5.383-12 12-12 12 5.383 12 12-5.383 12-12 12zM10 22l8-4 4-8-8 4-4 8z"></path>
</symbol>
<symbol id="icon-Celsius" viewBox="0 0 32 32">
<path d="M13.073 11.023c-0.225-0.212-0.487-0.38-0.784-0.504-0.301-0.121-0.621-0.184-0.961-0.184-0.341 0-0.662 0.063-0.961 0.184-0.297 0.124-0.559 0.292-0.784 0.504-0.224 0.214-0.4 0.464-0.529 0.753-0.128 0.288-0.191 0.592-0.191 0.911 0 0.32 0.064 0.625 0.191 0.913 0.129 0.288 0.305 0.539 0.529 0.751 0.225 0.214 0.487 0.383 0.784 0.504 0.299 0.124 0.62 0.185 0.961 0.185 0.34 0 0.66-0.061 0.961-0.185 0.297-0.121 0.559-0.29 0.784-0.504 0.224-0.212 0.4-0.464 0.526-0.751 0.128-0.288 0.194-0.592 0.194-0.913 0-0.319-0.066-0.624-0.194-0.911-0.126-0.289-0.302-0.539-0.526-0.753zM12.113 13.44c-0.215 0.214-0.477 0.32-0.785 0.32s-0.57-0.107-0.785-0.32c-0.212-0.214-0.32-0.464-0.32-0.753 0-0.297 0.108-0.552 0.32-0.759 0.215-0.208 0.477-0.311 0.785-0.311s0.57 0.103 0.785 0.311c0.211 0.207 0.319 0.462 0.319 0.759 0 0.289-0.108 0.539-0.319 0.753zM20.953 19.487c-0.379 0.108-0.755 0.161-1.129 0.161-0.246 0-0.488-0.038-0.728-0.112-0.241-0.076-0.46-0.193-0.656-0.353-0.198-0.16-0.358-0.365-0.479-0.616-0.122-0.25-0.185-0.557-0.185-0.919v-3.216c0-0.362 0.062-0.672 0.185-0.928 0.121-0.255 0.279-0.464 0.471-0.624s0.409-0.275 0.656-0.344c0.245-0.069 0.49-0.104 0.736-0.104 0.374 0 0.758 0.055 1.152 0.168 0.395 0.112 0.762 0.312 1.104 0.6l1.056-1.697c-0.428-0.372-0.936-0.645-1.53-0.816-0.591-0.169-1.206-0.255-1.846-0.255-0.522 0-1.036 0.075-1.536 0.224-0.501 0.15-0.947 0.374-1.336 0.672-0.388 0.3-0.704 0.669-0.943 1.112-0.242 0.443-0.362 0.958-0.362 1.544v4.128c0 0.598 0.124 1.117 0.37 1.56 0.245 0.443 0.565 0.811 0.958 1.104 0.396 0.294 0.842 0.514 1.344 0.664 0.503 0.148 1.014 0.224 1.538 0.224 0.65 0 1.267-0.096 1.855-0.288 0.586-0.193 1.082-0.46 1.488-0.799l-1.040-1.697c-0.383 0.299-0.766 0.501-1.143 0.607z"></path>
</symbol>
<symbol id="icon-Fahrenheit" viewBox="0 0 32 32">
<path d="M13.033 11.079c-0.225-0.212-0.487-0.38-0.784-0.504-0.301-0.121-0.621-0.184-0.961-0.184-0.341 0-0.662 0.063-0.961 0.184-0.297 0.124-0.559 0.292-0.784 0.504-0.224 0.213-0.4 0.463-0.529 0.753-0.128 0.288-0.191 0.592-0.191 0.912 0 0.32 0.064 0.625 0.191 0.913 0.129 0.288 0.305 0.539 0.529 0.751 0.225 0.213 0.487 0.383 0.784 0.504 0.299 0.124 0.62 0.185 0.961 0.185 0.34 0 0.66-0.061 0.961-0.185 0.297-0.121 0.559-0.29 0.784-0.504 0.224-0.212 0.4-0.464 0.526-0.751 0.128-0.288 0.194-0.592 0.194-0.913 0-0.319-0.066-0.624-0.194-0.912-0.126-0.289-0.302-0.539-0.526-0.753zM12.074 13.496c-0.215 0.214-0.477 0.32-0.785 0.32s-0.57-0.107-0.785-0.32c-0.212-0.213-0.32-0.463-0.32-0.753 0-0.297 0.108-0.552 0.32-0.759 0.215-0.208 0.477-0.311 0.785-0.311s0.57 0.103 0.785 0.311c0.211 0.207 0.319 0.462 0.319 0.759 0 0.289-0.108 0.539-0.319 0.753zM23.176 12.552v-1.969h-7.599v11.025h2.191v-4.496h4.624v-1.967h-4.624v-2.592h5.407z"></path>
</symbol>
<symbol id="icon-notifications-outline" viewBox="0 0 20 20">
<path d="M6 8v7h8v-7c0-2.209-1.791-4-4-4s-4 1.791-4 4v0zM8.030 2.33c-0.016-0.095-0.025-0.204-0.025-0.315 0-1.105 0.895-2 2-2s2 0.895 2 2c0 0.111-0.009 0.22-0.027 0.327l0.002-0.012c2.361 0.843 4.020 3.060 4.020 5.664 0 0.002 0 0.004 0 0.006v-0 6l3 2v1h-18v-1l3-2v-6c0-0.001 0-0.002 0-0.003 0-2.608 1.664-4.827 3.988-5.654l0.042-0.013zM12 18c0 1.105-0.895 2-2 2s-2-0.895-2-2v0h4z"></path>
</symbol>
<symbol id="icon-stand-by" viewBox="0 0 20 20">
<path d="M4.16 4.16l1.42 1.42c-1.585 1.292-2.588 3.244-2.588 5.43 0 3.86 3.13 6.99 6.99 6.99 0.006 0 0.013 0 0.019-0h-0.001c3.862-0.006 6.99-3.137 6.99-7 0-2.18-0.996-4.127-2.558-5.41l-0.012-0.010 1.42-1.42c1.936 1.661 3.155 4.11 3.155 6.844 0 4.971-4.029 9-9 9s-9-4.029-9-9c0-2.734 1.219-5.183 3.143-6.834l0.012-0.010zM9 0h2v8h-2v-8z"></path>
</symbol>
<symbol id="icon-target" viewBox="0 0 20 20">
<path d="M17.94 11h-4.94v-2h4.94c-0.469-3.628-3.311-6.471-6.9-6.936l-0.040-0.004v4.94h-2v-4.94c-3.628 0.469-6.471 3.311-6.936 6.9l-0.004 0.040h4.94v2h-4.94c0.469 3.628 3.311 6.471 6.9 6.936l0.040 0.004v-4.94h2v4.94c3.628-0.469 6.471-3.311 6.936-6.9l0.004-0.040zM10 20c-5.523 0-10-4.477-10-10s4.477-10 10-10v0c5.523 0 10 4.477 10 10s-4.477 10-10 10v0z"></path>
</symbol>
<symbol id="icon-time1" viewBox="0 0 20 20">
<path d="M10 20c-5.523 0-10-4.477-10-10s4.477-10 10-10v0c5.523 0 10 4.477 10 10s-4.477 10-10 10v0zM10 18c4.418 0 8-3.582 8-8s-3.582-8-8-8v0c-4.418 0-8 3.582-8 8s3.582 8 8 8v0zM9 10.41v-6.41h2v5.59l3.95 3.95-1.41 1.41-4.54-4.54z"></path>
</symbol>
<symbol id="icon-user" viewBox="0 0 20 20">
<path d="M5 5c0-2.761 2.239-5 5-5s5 2.239 5 5v0 2c0 2.761-2.239 5-5 5s-5-2.239-5-5v0-2zM0 16.68c2.86-1.685 6.301-2.68 9.974-2.68 0.009 0 0.018 0 0.027 0h-0.001c3.64 0 7.060 0.97 10 2.68v3.32h-20v-3.32z"></path>
</symbol>
<symbol id="icon-user-solid-circle" viewBox="0 0 20 20">
<path d="M10 20c-5.523 0-10-4.477-10-10s4.477-10 10-10v0c5.523 0 10 4.477 10 10s-4.477 10-10 10v0zM7 6v2c0 1.657 1.343 3 3 3s3-1.343 3-3v0-2c0-1.657-1.343-3-3-3s-3 1.343-3 3v0zM3.35 14.44c1.456 2.155 3.89 3.553 6.65 3.553s5.194-1.398 6.632-3.525l0.018-0.028c-1.951-0.918-4.238-1.453-6.65-1.453s-4.699 0.536-6.748 1.495l0.098-0.041z"></path>
</symbol>
<symbol id="icon-chevron-small-left" viewBox="0 0 20 20">
<path d="M12.141 13.418c0.268 0.271 0.268 0.709 0 0.978s-0.701 0.272-0.969 0l-3.83-3.908c-0.268-0.27-0.268-0.707 0-0.979l3.83-3.908c0.267-0.27 0.701-0.27 0.969 0s0.268 0.709 0 0.978l-3.141 3.421 3.141 3.418z"></path>
</symbol>
<symbol id="icon-chevron-small-right" viewBox="0 0 20 20">
<path d="M11 10l-3.141-3.42c-0.268-0.27-0.268-0.707 0-0.978 0.268-0.27 0.701-0.27 0.969 0l3.83 3.908c0.268 0.271 0.268 0.709 0 0.979l-3.83 3.908c-0.267 0.272-0.701 0.27-0.969 0s-0.268-0.707 0-0.978l3.141-3.419z"></path>
</symbol>
<symbol id="icon-chevron-with-circle-down" viewBox="0 0 20 20">
<path d="M12.505 8.698l-2.505 2.302-2.506-2.302c-0.198-0.196-0.518-0.196-0.718 0-0.197 0.196-0.197 0.515 0 0.71l2.864 2.807c0.199 0.196 0.52 0.196 0.717 0l2.864-2.807c0.199-0.195 0.198-0.514 0-0.71-0.197-0.196-0.517-0.196-0.716 0zM10 0.4c-5.302 0-9.6 4.298-9.6 9.6 0 5.303 4.298 9.6 9.6 9.6s9.6-4.297 9.6-9.6c0-5.302-4.298-9.6-9.6-9.6zM10 18.354c-4.615 0-8.354-3.74-8.354-8.354s3.739-8.354 8.354-8.354c4.613 0 8.354 3.74 8.354 8.354s-3.741 8.354-8.354 8.354z"></path>
</symbol>
<symbol id="icon-chevron-with-circle-left" viewBox="0 0 20 20">
<path d="M11.302 6.776c-0.196-0.197-0.515-0.197-0.71 0l-2.807 2.865c-0.196 0.199-0.196 0.52 0 0.717l2.807 2.864c0.195 0.199 0.514 0.198 0.71 0 0.196-0.197 0.196-0.518 0-0.717l-2.302-2.505 2.302-2.506c0.196-0.198 0.196-0.518 0-0.718zM10 0.4c-5.302 0-9.6 4.298-9.6 9.6 0 5.303 4.298 9.6 9.6 9.6s9.6-4.297 9.6-9.6c0-5.302-4.298-9.6-9.6-9.6zM10 18.354c-4.615 0-8.354-3.74-8.354-8.354s3.739-8.354 8.354-8.354c4.613 0 8.354 3.74 8.354 8.354s-3.741 8.354-8.354 8.354z"></path>
</symbol>
<symbol id="icon-chevron-with-circle-right" viewBox="0 0 20 20">
<path d="M11 10l-2.302-2.506c-0.196-0.198-0.196-0.519 0-0.718 0.196-0.197 0.515-0.197 0.71 0l2.807 2.864c0.196 0.199 0.196 0.52 0 0.717l-2.807 2.864c-0.195 0.199-0.514 0.198-0.71 0-0.196-0.197-0.196-0.518 0-0.717l2.302-2.504zM10 0.4c5.302 0 9.6 4.298 9.6 9.6 0 5.303-4.298 9.6-9.6 9.6s-9.6-4.297-9.6-9.6c0-5.302 4.298-9.6 9.6-9.6zM10 18.354c4.613 0 8.354-3.74 8.354-8.354s-3.741-8.354-8.354-8.354c-4.615 0-8.354 3.74-8.354 8.354s3.739 8.354 8.354 8.354z"></path>
</symbol>
<symbol id="icon-gauge" viewBox="0 0 20 20">
<path d="M8.127 13.6c-0.689 1.197-0.225 2.18 0.732 2.732 0.956 0.553 2.041 0.465 2.732-0.732 0.689-1.195 5.047-11.865 4.668-12.084s-7.442 8.888-8.132 10.084zM10 6c0.438 0 0.864 0.037 1.281 0.109 0.438-0.549 0.928-1.154 1.405-1.728-0.852-0.246-1.752-0.381-2.686-0.381-5.607 0-10 4.729-10 10.766 0 0.371 0.016 0.742 0.049 1.103 0.049 0.551 0.54 0.955 1.084 0.908 0.551-0.051 0.957-0.535 0.908-1.086-0.027-0.302-0.041-0.615-0.041-0.925 0-4.916 3.514-8.766 8-8.766zM17.219 7.25c-0.279 0.75-0.574 1.514-0.834 2.174 1.015 1.47 1.615 3.314 1.615 5.342 0 0.316-0.015 0.635-0.043 0.943-0.050 0.551 0.355 1.037 0.905 1.088 0.030 0.002 0.061 0.004 0.092 0.004 0.511 0 0.948-0.391 0.995-0.91 0.033-0.37 0.051-0.748 0.051-1.125 0-2.954-1.053-5.59-2.781-7.516z"></path>
</symbol>
<symbol id="icon-home" viewBox="0 0 20 20">
<path d="M18.672 11h-1.672v6c0 0.445-0.194 1-1 1h-4v-6h-4v6h-4c-0.806 0-1-0.555-1-1v-6h-1.672c-0.598 0-0.47-0.324-0.060-0.748l8.024-8.032c0.195-0.202 0.451-0.302 0.708-0.312 0.257 0.010 0.513 0.109 0.708 0.312l8.023 8.031c0.411 0.425 0.539 0.749-0.059 0.749z"></path>
</symbol>
<symbol id="icon-light-bulb" viewBox="0 0 20 20">
<path d="M7.186 19.172c0.789 0.51 1.701 0.855 2.814 0.828 1.111 0.027 2.025-0.318 2.814-0.828l-0.017-2.172h-5.594l-0.017 2.172zM12.697 16c0-4.357 4.63-5.848 4.283-10.188-0.218-2.738-2.073-5.81-6.98-5.81s-6.762 3.072-6.981 5.811c-0.347 4.339 4.284 5.83 4.284 10.187h5.394zM5 6c0.207-2.598 2.113-4 5-4s4.654 1.371 4.861 3.969c0.113 1.424-0.705 2.373-1.809 3.926-0.814 1.146-1.603 2.343-2.052 4.105h-2c-0.449-1.762-1.238-2.959-2.053-4.106-1.103-1.552-2.061-2.47-1.947-3.894z"></path>
</symbol>
<symbol id="icon-light-down" viewBox="0 0 20 20">
<path d="M10 6.797c-1.775 0-3.2 1.426-3.2 3.201 0 1.773 1.425 3.199 3.2 3.199s3.199-1.426 3.199-3.199c0-1.775-1.425-3.201-3.199-3.201zM10 12.047c-1.133 0-2.051-0.916-2.051-2.049s0.918-2.051 2.051-2.051c1.132 0 2.050 0.918 2.050 2.051s-0.919 2.049-2.050 2.049zM15 5c-0.312-0.312-0.883-0.248-1.273 0.142s-0.453 0.959-0.141 1.272 0.882 0.25 1.273-0.141c0.39-0.39 0.453-0.961 0.141-1.273zM5.142 13.729c-0.391 0.39-0.454 0.959-0.142 1.271s0.882 0.25 1.273-0.141c0.391-0.391 0.454-0.961 0.142-1.273s-0.883-0.248-1.273 0.143zM5 5c-0.312 0.312-0.249 0.883 0.141 1.273s0.961 0.453 1.273 0.141 0.249-0.883-0.142-1.273c-0.389-0.389-0.96-0.453-1.272-0.141zM13.727 14.857c0.39 0.391 0.96 0.455 1.273 0.143s0.249-0.883-0.142-1.274c-0.391-0.391-0.96-0.453-1.273-0.141s-0.248 0.882 0.142 1.272zM10 4.998c0.441 0 0.8-0.447 0.8-1s-0.359-0.998-0.8-0.998c-0.442 0-0.801 0.445-0.801 0.998s0.358 1 0.801 1zM10 17c0.441 0 0.8-0.447 0.8-1s-0.358-0.998-0.799-0.998c-0.442 0-0.801 0.445-0.801 0.998s0.357 1 0.8 1zM5 10c0-0.441-0.45-0.8-1.003-0.8s-0.997 0.359-0.997 0.8c0 0.442 0.444 0.8 0.997 0.8s1.003-0.358 1.003-0.8zM17 10c0-0.441-0.448-0.8-1.001-0.8s-0.999 0.359-0.999 0.8c0 0.442 0.446 0.8 0.999 0.8s1.001-0.358 1.001-0.8z"></path>
</symbol>
<symbol id="icon-light-up" viewBox="0 0 20 20">
<path d="M19 9.199c-0.182 0-0.799 0-0.98 0-0.553 0-1 0.359-1 0.801s0.447 0.799 1 0.799c0.182 0 0.799 0 0.98 0 0.552 0 1-0.357 1-0.799 0-0.441-0.449-0.801-1-0.801zM10 4.5c-3.051 0-5.5 2.449-5.5 5.5s2.449 5.5 5.5 5.5c3.050 0 5.5-2.449 5.5-5.5s-2.451-5.5-5.5-5.5zM10 14c-2.211 0-4-1.791-4-4 0-2.211 1.789-4 4-4 2.209 0 4 1.789 4 4 0 2.209-1.791 4-4 4zM3 10c0-0.441-0.449-0.801-1-0.801-0.185 0-0.816 0-1 0-0.553 0-1 0.359-1 0.801s0.447 0.799 1 0.799c0.184 0 0.815 0 1 0 0.551 0 1-0.358 1-0.799zM10 3c0.441 0 0.799-0.447 0.799-1 0-0.184 0-0.816 0-1 0-0.553-0.358-1-0.799-1s-0.801 0.447-0.801 1c0 0.184 0 0.816 0 1 0 0.553 0.359 1 0.801 1zM10 17c-0.442 0-0.801 0.447-0.801 1 0 0.184 0 0.816 0 1 0 0.553 0.359 1 0.801 1s0.799-0.447 0.799-1c0-0.184 0-0.816 0-1 0-0.553-0.358-1-0.799-1zM17.365 3.766c0.391-0.391 0.454-0.961 0.142-1.273s-0.883-0.248-1.272 0.143c-0.108 0.107-0.593 0.592-0.7 0.699-0.391 0.391-0.454 0.961-0.142 1.273s0.883 0.248 1.273-0.143c0.107-0.108 0.591-0.592 0.699-0.699zM3.334 15.533c-0.108 0.109-0.593 0.594-0.7 0.701-0.391 0.391-0.454 0.959-0.142 1.271s0.883 0.25 1.272-0.141c0.108-0.107 0.593-0.592 0.7-0.699 0.391-0.391 0.454-0.961 0.142-1.274s-0.883-0.247-1.272 0.142zM3.765 2.635c-0.39-0.391-0.961-0.455-1.273-0.143s-0.248 0.883 0.141 1.274c0.108 0.107 0.593 0.592 0.7 0.699 0.391 0.391 0.96 0.455 1.272 0.143s0.249-0.883-0.141-1.273c-0.107-0.108-0.591-0.593-0.699-0.7zM15.534 16.666c0.108 0.107 0.593 0.592 0.7 0.699 0.391 0.391 0.96 0.453 1.272 0.143 0.312-0.312 0.249-0.883-0.142-1.273-0.107-0.107-0.592-0.592-0.699-0.699-0.391-0.391-0.961-0.455-1.274-0.143s-0.248 0.882 0.143 1.273z"></path>
</symbol>
<symbol id="icon-moon2" viewBox="0 0 20 20">
<path d="M13.719 1.8c0.686 0.385 1.332 0.867 1.916 1.449 3.42 3.422 3.42 8.966 0 12.386s-8.965 3.42-12.386 0c-0.583-0.584-1.065-1.231-1.449-1.916 3.335 1.867 7.633 1.387 10.469-1.449s3.318-7.134 1.45-10.47z"></path>
</symbol>
<symbol id="icon-power-plug" viewBox="0 0 20 20">
<path d="M0 14v1.498c0 0.277 0.225 0.502 0.502 0.502h0.997c0.276 0 0.501-0.225 0.501-0.502v-1.498c0-0.959 0.801-2.273 2-2.779v-2.105c-2.316 0.536-4 2.854-4 4.884zM12.065 4.701l-2.53 1.898c-0.347 0.26-0.769 0.401-1.203 0.401h-2.327c-0.555 0-1.005 0.45-1.005 1.005v3.991c0 0.554 0.45 1.004 1.005 1.004h2.327c0.434 0 0.856 0.141 1.203 0.401l2.531 1.898c0.606 0.455 1.344 0.701 2.102 0.701h1.832v-12h-1.832c-0.758 0-1.496 0.246-2.103 0.701zM17 6v2h3v-2h-3zM17 14h3v-2h-3v2z"></path>
</symbol>
<symbol id="icon-thermometer2" viewBox="0 0 20 20">
<path d="M13 10.123v-9.123c0-0.553-0.447-1-1-1h-4.201c-0.552 0-0.799 0.447-0.799 1v9.123c-1.444 0.969-2.4 2.608-2.4 4.477 0 2.982 2.418 5.4 5.4 5.4s5.4-2.418 5.4-5.4c0-1.869-0.956-3.508-2.4-4.477zM10 17.9c-1.823 0-3.3-1.477-3.3-3.3 0-1.472 0.97-2.703 2.3-3.129v-7.471h2v7.471c1.33 0.426 2.3 1.657 2.3 3.129 0 1.822-1.477 3.3-3.3 3.3z"></path>
</symbol>
</defs>
</svg>
